<svg width="123" height="123" viewBox="0 0 123 123" fill="none" xmlns="http://www.w3.org/2000/svg">
<g clip-path="url(#clip0_234_22)">
<path d="M109.82 27.331C109.8 27.151 109.77 26.961 109.77 26.761C109.77 26.571 109.78 26.381 109.82 26.191V13.701C101.06 12.871 92.03 13.831 84.14 16.821C76.77 19.621 70.41 24.211 66.28 30.801V101.951C72.71 97.661 79.28 94.131 86.03 91.731C93.72 88.991 101.63 87.691 109.82 88.341V27.331ZM58.71 101.211V30.681C54.74 23.681 48.32 19.001 41.08 16.221C32.87 13.081 23.64 12.371 15.6 13.511L15.17 88.561C23.94 88.241 32.53 89.361 40.6 92.001C47.03 94.091 53.12 97.161 58.71 101.211Z" fill="#DADADA"/>
<path d="M7.62 92.251L7.97 30.561H1V109.061C10.57 106.591 20.17 105.021 29.85 104.951C38.78 104.901 47.71 106.141 56.66 109.171C51.1 104.671 44.9 101.351 38.28 99.201C29.95 96.481 20.94 95.581 11.7 96.371C9.61 96.541 7.79 94.991 7.61 92.911C7.59 92.681 7.59 92.461 7.62 92.251ZM69.95 108.591C78.32 105.961 86.67 104.881 95.03 104.931C104.7 104.981 114.31 106.571 123.88 109.041V30.561H117.4V92.591C117.4 94.681 115.7 96.381 113.61 96.381C113.31 96.381 113.02 96.351 112.74 96.281C104.45 94.981 96.42 96.061 88.58 98.851C82.26 101.101 76.06 104.471 69.95 108.591Z" fill="#AA3737"/>
</g>
<defs>
<clipPath id="clip0_234_22">
<rect width="123" height="123" fill="white"/>
</clipPath>
</defs>
</svg>
